<svg width="31" height="31" viewBox="0 0 31 31" fill="none" xmlns="http://www.w3.org/2000/svg">
<path d="M21.4416 7.5175C20.5589 6.50939 20.0723 5.21497 20.0725 3.875H16.0812V19.8917C16.0511 20.7586 15.6853 21.58 15.0612 22.1824C14.437 22.7849 13.6033 23.1214 12.7358 23.1208C10.9016 23.1208 9.37746 21.6225 9.37746 19.7625C9.37746 17.5408 11.5216 15.8746 13.7304 16.5592V12.4775C9.27412 11.8833 5.37329 15.345 5.37329 19.7625C5.37329 24.0637 8.93829 27.125 12.7229 27.125C16.7787 27.125 20.0725 23.8312 20.0725 19.7625V11.6379C21.6909 12.8002 23.6341 13.4238 25.6266 13.4204V9.42917C25.6266 9.42917 23.1983 9.54542 21.4416 7.5175Z" fill="black"/>
</svg>
