<svg width="31" height="31" viewBox="0 0 31 31" fill="none" xmlns="http://www.w3.org/2000/svg">
<path fill-rule="evenodd" clip-rule="evenodd" d="M15.5 0C6.93935 0 0 6.36229 0 14.2111C0 16.8969 0.81375 19.4123 2.2289 21.5553L0.8463 25.8641C0.766916 26.1115 0.761693 26.3739 0.831179 26.6238C0.900665 26.8737 1.04229 27.1018 1.24118 27.2842C1.44006 27.4665 1.68885 27.5963 1.9614 27.6601C2.23394 27.7238 2.52017 27.719 2.79 27.6462L7.4896 26.3786C9.90564 27.7186 12.6763 28.4254 15.5 28.4221C24.0606 28.4221 31 22.0598 31 14.2111C31 6.36229 24.0606 0 15.5 0ZM11.9939 17.427C15.1295 20.3005 18.1226 20.6799 19.1797 20.7155C20.787 20.7695 22.3525 19.6439 22.9617 18.3379C23.038 18.1754 23.0655 17.9971 23.0415 17.8214C23.0176 17.6458 22.9429 17.4793 22.8253 17.3389C21.9759 16.3441 20.8274 15.6293 19.7052 14.9188C19.471 14.7699 19.1829 14.7101 18.9016 14.752C18.6204 14.7938 18.3678 14.9341 18.197 15.1433L17.267 16.4436C17.2179 16.5133 17.1417 16.5632 17.0539 16.5832C16.9661 16.6033 16.8733 16.592 16.7943 16.5516C16.1634 16.2205 15.2443 15.6577 14.584 15.0524C13.9236 14.447 13.3471 13.6426 13.0231 13.1012C12.9839 13.0322 12.9728 12.9527 12.9919 12.8769C13.0109 12.8011 13.0588 12.734 13.1269 12.6876L14.5591 11.7128C14.7641 11.5502 14.8965 11.324 14.9308 11.0774C14.9651 10.8309 14.899 10.5815 14.7451 10.3769C14.0507 9.44467 13.2416 8.25947 12.0683 7.47359C11.9165 7.37363 11.7392 7.31129 11.5535 7.29262C11.3677 7.27395 11.1799 7.29957 11.0081 7.36701C9.5821 7.92693 8.3483 9.36224 8.4072 10.8388C8.44595 11.808 8.8598 14.5521 11.9939 17.427Z" fill="#DE6F08"/>
</svg>
